<svg width="33px" height="26px" viewBox="0 0 33 26" version="1.1" xmlns="http://www.w3.org/2000/svg" xmlns:xlink="http://www.w3.org/1999/xlink">
    <!-- Generator: Sketch 51.2 (57519) - http://www.bohemiancoding.com/sketch -->
    <desc>Created with Sketch.</desc>
    <defs></defs>
    <g id="Symbols" stroke="none" stroke-width="1" fill="none" fill-rule="evenodd">
        <g id="1-YOUR-PREF-M" transform="translate(-39.000000, -474.000000)" fill="#FFFFFF">
            <g id="Group-15">
                <g id="Group-10" transform="translate(35.000000, 75.000000)">
                    <g id="Group-12-Copy" transform="translate(0.000000, 391.000000)">
                        <g id="icon/your-room/w">
                            <polygon id="Fill-1" points="36.6636643 19.9970926 36.6636643 14.5477583 26.8422065 14.5477583 26.8422065 8 4.48397291 8 4.48397291 22.9914219 6.12021138 22.9914219 6.12021138 33.9044723 11.8507127 33.9044723 11.8507127 33.9100885 12.9293616 33.9100885 12.9293616 32.0238552 36.6639519 32.0238552 36.6639519 21.6335899 35.585303 21.6335899 35.585303 23.5507085 32.0319459 23.5507085 32.0319459 24.6293574 35.585303 24.6293574 35.585303 30.9452063 26.8424941 30.9452063 26.8424941 24.6293574 30.3958513 24.6293574 30.3958513 23.5507085 25.7637733 23.5507085 25.7637733 30.9452063 12.9296492 30.9452063 12.9296492 26.5450379 11.8510003 26.5450379 11.8510003 32.8260104 7.19914719 32.8260104 7.19914719 22.9916089 11.8510003 22.9916089 11.8510003 24.9073253 12.9296492 24.9073253 12.9296492 22.9916089 21.4437845 22.9916089 21.4437845 21.91296 5.56319781 21.91296 5.56319781 9.07883586 25.7641329 9.07883586 25.7641329 15.6265942 35.5855906 15.6265942 35.5855906 19.9972795"></polygon>
                        </g>
                    </g>
                </g>
            </g>
        </g>
    </g>
</svg>
