<svg width="31px" height="31px" viewBox="0 0 31 31" version="1.1" xmlns="http://www.w3.org/2000/svg" xmlns:xlink="http://www.w3.org/1999/xlink">
    <!-- Generator: Sketch 51.3 (57544) - http://www.bohemiancoding.com/sketch -->
    <desc>Created with Sketch.</desc>
    <defs></defs>
    <g id="Page-1" stroke="none" stroke-width="1" fill="none" fill-rule="evenodd">
        <g id="768-Trip-Landing" transform="translate(-39.000000, -2764.000000)" fill="#FFFFFF">
            <g id="Group-6" transform="translate(0.000000, 2359.000000)">
                <g id="icon/your-sleep" transform="translate(39.000000, 405.000000)">
                    <path d="M30.068059,29.4231162 L29.5208023,25.509113 C29.5170276,25.4819312 29.5057038,25.4605744 29.4994138,25.4333976 C29.5447029,25.2722549 29.5711253,25.0975239 29.5711253,24.9111329 L29.5698692,17.3838213 C29.5698692,16.6596686 29.1886704,16.0714001 28.7194183,16.0714001 L27.9570205,16.0714001 C27.9092129,14.9822386 27.1682133,13.9144488 26.3491961,13.0582389 L26.3491961,6.76601276 C26.3491961,3.02869883 25.1376755,0.97080292 22.9385033,0.97080292 L7.17491871,0.97080292 C4.9758109,0.97080292 3.76551415,3.02874853 3.76551415,6.76601276 L3.76551415,13.09303 C2.94649698,13.9298066 2.20677277,14.9801511 2.15768972,16.0731893 L1.39780314,16.0731893 C0.928551062,16.0731893 0.547352192,16.6614578 0.547352192,17.3856105 L0.547352192,24.9129221 C0.547352192,25.0682397 0.567481399,25.2157939 0.600190555,25.3536364 C0.58257766,25.4041134 0.56370677,25.452652 0.556157512,25.5108973 L0.00890073639,29.4249005 C-0.0363915896,29.7432991 0.0957075389,30.0578011 0.302033521,30.1257929 C0.329711019,30.1354996 0.356131167,30.1393813 0.382550349,30.1393813 C0.55868252,30.1393813 0.717210492,29.9491185 0.756212844,29.6734285 L1.24182594,26.2001297 C1.29214895,26.2156614 1.34498732,26.2253731 1.3978289,26.2253731 L28.7207323,26.2253731 C28.7609907,26.2253731 28.7987338,26.2156614 28.8364769,26.207898 L29.3208339,29.6734435 C29.359833,29.9510718 29.5183513,30.1393962 29.6944964,30.1393962 C29.7209156,30.1393962 29.748594,30.1355145 29.7750132,30.1258078 C29.9813392,30.0559174 30.1134415,29.7413955 30.068146,29.4229771 L30.068059,29.4231162 Z M4.5303757,6.76613204 C4.5303757,3.66171865 5.3959316,2.15123647 7.17483819,2.15123647 L22.9384228,2.15123647 C24.7185854,2.15123647 25.5841413,3.65978029 25.5841413,6.76613204 L25.5841413,12.3302293 C25.1199135,11.9244602 24.693432,11.6060766 24.4216716,11.4138307 L24.4216716,11.0022416 C24.4216716,10.5731774 24.0064946,7.9657703 23.2680264,7.4376905 C22.6364847,6.98532616 21.1406108,6.71741451 20.0612022,6.71741451 C18.9805054,6.71741451 17.4859198,6.98727944 16.8531219,7.43962887 C16.1158777,7.96770866 15.7007329,10.5751058 15.7007329,11.0041799 L15.7007329,11.2759882 L14.4300807,11.2837566 L14.4300807,11.0041849 C14.4300807,10.5751207 14.0149038,7.96771363 13.2764356,7.43963384 C12.6448938,6.98921283 11.1502761,6.71935784 10.0696114,6.71935784 C8.98894674,6.71935784 7.49432897,6.98922277 6.86153111,7.4415722 C6.12428683,7.969652 5.707886,10.5770491 5.707886,11.0061233 L5.707886,11.4914895 C5.43865705,11.6739889 5.00461982,11.9826807 4.52905523,12.3884548 L4.52905523,6.7662066 L4.5303757,6.76613204 Z M16.4658682,11.2684037 L16.4658682,11.0082455 C16.4809635,10.5500611 16.8986623,8.70760686 17.1754147,8.50959558 C17.580511,8.22031719 18.865012,7.89801704 20.0614277,7.89801704 C21.2578433,7.89801704 22.5423444,8.22030228 22.9474406,8.50959558 C23.2254749,8.70762674 23.6418822,10.5500959 23.6569871,11.0024304 L23.6569871,11.2315251 L16.4658682,11.2684037 Z M6.47308573,11.3227674 L6.47308573,11.0063072 C6.48818102,10.5481178 6.90587978,8.7056685 7.18263222,8.50765721 C7.58772849,8.21837883 8.87222955,7.89607868 10.0686452,7.89607868 C11.2650608,7.89607868 12.5495619,8.21836392 12.9534021,8.50765721 C13.2314364,8.70568838 13.6491319,10.5481576 13.6642047,11.0004921 L13.6642047,11.2839454 L6.47308573,11.3227674 Z M6.10699181,12.5051194 L23.9904234,12.4080472 C25.2660998,13.2855791 27.0664239,14.980504 27.184687,16.0716039 L2.92915365,16.0716039 C3.0448982,14.9785657 4.80493809,13.3671395 6.10705623,12.5051144 L6.10699181,12.5051194 Z M1.39804469,17.2520225 L28.7209481,17.2520225 C28.7674965,17.2520225 28.8064956,17.3122062 28.8064956,17.3840449 L28.8064956,19.2497944 C28.7775579,19.2400876 28.7511387,19.2226125 28.7209481,19.2226125 L1.39804469,19.2226125 C1.36785088,19.2226125 1.34017241,19.2381443 1.31246523,19.2497944 L1.31249395,17.3840449 C1.31123595,17.3122112 1.35149308,17.2520225 1.39804469,17.2520225 Z M1.39804469,25.0432497 C1.3514963,25.0432497 1.31249395,24.983066 1.31249395,24.9112323 L1.31123595,20.3759587 C1.34017177,20.3856654 1.36659288,20.4031405 1.39678347,20.4031405 L28.7196856,20.4031405 C28.7498794,20.4031405 28.7775579,20.3876088 28.8052331,20.3759587 L28.8052331,24.9112323 C28.8052331,24.983066 28.766234,25.0432497 28.7196856,25.0432497 L1.39804469,25.0432497 Z" id="Fill-1"></path>
                </g>
            </g>
        </g>
    </g>
</svg>
